<svg width="437" height="109" viewBox="0 0 437 109" fill="none" xmlns="http://www.w3.org/2000/svg">
<rect x="56.3336" y="9.19275" width="63.0361" height="91.9277" fill="#1572E8"/>
<rect x="56.3336" y="69.6024" width="63.0362" height="31.5181" fill="#EAC710"/>
<path d="M53.6753 16.614V62H47.1826V30.8917C47.1826 30.3874 47.1931 29.8411 47.2141 29.2527C47.2561 28.6434 47.3086 28.034 47.3717 27.4247L32.7788 54.3726C32.2115 55.4863 31.3395 56.0431 30.1628 56.0431H29.1227C27.925 56.0431 27.053 55.4863 26.5067 54.3726L11.6932 27.3616C11.7562 27.971 11.7983 28.5803 11.8193 29.1897C11.8613 29.799 11.8823 30.3664 11.8823 30.8917V62H5.38959V16.614H10.9053C11.5566 16.614 12.0609 16.677 12.4181 16.8031C12.7753 16.9081 13.101 17.2548 13.3952 17.8432L27.9565 44.2238C28.2717 44.8332 28.5659 45.4635 28.839 46.1149C29.1332 46.7453 29.3959 47.3966 29.627 48.069C29.8791 47.3966 30.1418 46.7347 30.4149 46.0834C30.7091 45.411 31.0138 44.7701 31.329 44.1608L45.6697 17.8432C45.9639 17.2548 46.2895 16.9081 46.6468 16.8031C47.004 16.677 47.5082 16.614 48.1596 16.614H53.6753ZM160.044 16.614V62H156.293C155.726 62 155.243 61.9054 154.843 61.7163C154.444 61.5062 154.066 61.17 153.709 60.7078L128.778 28.6854C128.841 29.2947 128.883 29.9041 128.904 30.5134C128.946 31.1018 128.967 31.6481 128.967 32.1524V62H122.474V16.614H126.32C126.635 16.614 126.897 16.635 127.107 16.677C127.339 16.698 127.549 16.7505 127.738 16.8346C127.927 16.9186 128.106 17.0447 128.274 17.2128C128.442 17.3809 128.62 17.591 128.809 17.8432L153.772 49.8971C153.709 49.2457 153.656 48.6048 153.614 47.9745C153.593 47.3441 153.583 46.7558 153.583 46.2094V16.614H160.044ZM178.266 62H170.859V16.614H178.266V62ZM220.254 22.76H206.102V62H198.758V22.76H184.575V16.614H220.254V22.76ZM250.24 62.6304C246.542 62.6304 243.159 62.021 240.091 60.8023C237.024 59.5416 234.376 57.7976 232.149 55.5703C229.964 53.301 228.262 50.6325 227.043 47.5647C225.824 44.4549 225.215 41.051 225.215 37.3529C225.215 33.6547 225.824 30.2718 227.043 27.204C228.262 24.1363 229.964 21.4888 232.149 19.2615C234.376 16.9922 237.024 15.2482 240.091 14.0295C243.159 12.7688 246.542 12.1384 250.24 12.1384C253.938 12.1384 257.3 12.7688 260.326 14.0295C263.394 15.2482 266.041 16.9922 268.269 19.2615C270.496 21.4888 272.219 24.1363 273.438 27.204C274.656 30.2718 275.266 33.6547 275.266 37.3529C275.266 41.051 274.656 44.4549 273.438 47.5647C272.219 50.6325 270.496 53.301 268.269 55.5703C266.041 57.7976 263.394 59.5416 260.326 60.8023C257.3 62.021 253.938 62.6304 250.24 62.6304ZM250.24 56.705C253.896 56.705 257.132 55.8645 259.948 54.1835C262.763 52.4605 264.97 50.1492 266.567 47.2495C268.164 44.3079 268.962 41.009 268.962 37.3529C268.962 33.6968 268.164 30.4189 266.567 27.5192C264.97 24.5775 262.763 22.2662 259.948 20.5852C257.132 18.9043 253.896 18.0638 250.24 18.0638C246.584 18.0638 243.348 18.9043 240.533 20.5852C237.717 22.2662 235.511 24.5775 233.914 27.5192C232.317 30.4189 231.518 33.6968 231.518 37.3529C231.518 41.009 232.317 44.3079 233.914 47.2495C235.511 50.1492 237.717 52.4605 240.533 54.1835C243.348 55.8645 246.584 56.705 250.24 56.705ZM297.795 38.3614C299.476 38.3614 300.946 38.1618 302.207 37.7626C303.468 37.3424 304.518 36.7645 305.359 36.0291C306.199 35.2937 306.83 34.4217 307.25 33.4131C307.67 32.3835 307.88 31.2489 307.88 30.0091C307.88 27.5297 307.061 25.6386 305.422 24.3359C303.783 23.0331 301.304 22.3818 297.984 22.3818H291.995V38.3614H297.795ZM319.164 62H312.577C311.274 62 310.328 61.4957 309.74 60.4871L299.15 45.2009C298.793 44.6756 298.404 44.2973 297.984 44.0662C297.563 43.8351 296.933 43.7195 296.093 43.7195H291.995V62H284.62V16.614H297.984C300.967 16.614 303.531 16.9186 305.674 17.528C307.838 18.1373 309.614 19.0093 311.001 20.144C312.387 21.2576 313.407 22.6024 314.058 24.1783C314.73 25.7542 315.066 27.5087 315.066 29.4418C315.066 31.0177 314.825 32.4886 314.342 33.8544C313.879 35.2201 313.196 36.4599 312.293 37.5735C311.41 38.6871 310.318 39.6537 309.015 40.4732C307.712 41.2926 306.231 41.9335 304.571 42.3958C305.474 42.9421 306.252 43.709 306.903 44.6966L319.164 62ZM332.04 62H324.633V16.614H332.04V62ZM380.363 16.614V62H376.612C376.045 62 375.561 61.9054 375.162 61.7163C374.763 61.5062 374.385 61.17 374.027 60.7078L349.097 28.6854C349.16 29.2947 349.202 29.9041 349.223 30.5134C349.265 31.1018 349.286 31.6481 349.286 32.1524V62H342.793V16.614H346.638C346.953 16.614 347.216 16.635 347.426 16.677C347.657 16.698 347.867 16.7505 348.057 16.8346C348.246 16.9186 348.424 17.0447 348.592 17.2128C348.76 17.3809 348.939 17.591 349.128 17.8432L374.09 49.8971C374.027 49.2457 373.975 48.6048 373.933 47.9745C373.912 47.3441 373.901 46.7558 373.901 46.2094V16.614H380.363ZM428.338 39.6537V57.619C423.82 60.8759 418.567 62.5043 412.579 62.5043C408.902 62.5043 405.571 61.937 402.588 60.8023C399.625 59.6467 397.093 58.0497 394.992 56.0116C392.891 53.9524 391.273 51.5045 390.138 48.6679C389.003 45.8312 388.436 42.7109 388.436 39.307C388.436 35.882 388.982 32.7512 390.075 29.9146C391.168 27.057 392.733 24.6091 394.771 22.5709C396.809 20.5117 399.268 18.9253 402.147 17.8117C405.025 16.677 408.261 16.1097 411.854 16.1097C413.682 16.1097 415.374 16.2568 416.928 16.5509C418.504 16.8241 419.965 17.2128 421.31 17.7171C422.654 18.2214 423.894 18.8307 425.029 19.5451C426.163 20.2596 427.203 21.058 428.149 21.9405L426.037 25.313C425.701 25.8383 425.27 26.1639 424.745 26.29C424.22 26.4161 423.652 26.29 423.043 25.9118C422.434 25.5546 421.782 25.1764 421.089 24.7771C420.416 24.3779 419.639 24.0102 418.757 23.674C417.874 23.3168 416.855 23.0332 415.699 22.823C414.544 22.5919 413.178 22.4763 411.602 22.4763C409.207 22.4763 407.042 22.8756 405.109 23.674C403.197 24.4515 401.558 25.5756 400.192 27.0465C398.827 28.4963 397.776 30.2613 397.041 32.3415C396.305 34.4217 395.937 36.7435 395.937 39.307C395.937 42.0175 396.326 44.4444 397.104 46.5877C397.881 48.7099 398.984 50.5169 400.413 52.0088C401.842 53.4796 403.565 54.6038 405.582 55.3812C407.62 56.1586 409.889 56.5474 412.39 56.5474C414.26 56.5474 415.92 56.3478 417.37 55.9485C418.841 55.5493 420.28 54.9925 421.688 54.2781V45.2639H415.353C414.869 45.2639 414.491 45.1378 414.218 44.8857C413.945 44.6125 413.808 44.2658 413.808 43.8456V39.6537H428.338Z" fill="black"/>
<path d="M88.0945 62.6304C84.3964 62.6304 81.0134 62.021 77.9457 60.8023C74.8779 59.5416 72.2304 57.7976 70.0031 55.5703C67.8179 53.301 66.1159 50.6325 64.8972 47.5647C63.6785 44.4549 63.0691 41.051 63.0691 37.3529C63.0691 33.6547 63.6785 30.2718 64.8972 27.204C66.1159 24.1363 67.8179 21.4888 70.0031 19.2615C72.2304 16.9922 74.8779 15.2482 77.9457 14.0295C81.0134 12.7688 84.3964 12.1384 88.0945 12.1384C91.7926 12.1384 95.1545 12.7688 98.1803 14.0295C101.248 15.2482 103.896 16.9922 106.123 19.2615C108.35 21.4888 110.073 24.1363 111.292 27.204C112.511 30.2718 113.12 33.6547 113.12 37.3529C113.12 41.051 112.511 44.4549 111.292 47.5647C110.073 50.6325 108.35 53.301 106.123 55.5703C103.896 57.7976 101.248 59.5416 98.1803 60.8023C95.1545 62.021 91.7926 62.6304 88.0945 62.6304ZM88.0945 56.705C91.7506 56.705 94.9865 55.8645 97.8021 54.1835C100.618 52.4605 102.824 50.1492 104.421 47.2495C106.018 44.3079 106.816 41.009 106.816 37.3529C106.816 33.6968 106.018 30.4189 104.421 27.5192C102.824 24.5775 100.618 22.2662 97.8021 20.5852C94.9865 18.9043 91.7506 18.0638 88.0945 18.0638C84.4384 18.0638 81.2025 18.9043 78.3869 20.5852C75.5713 22.2662 73.3651 24.5775 71.7681 27.5192C70.1712 30.4189 69.3728 33.6968 69.3728 37.3529C69.3728 41.009 70.1712 44.3079 71.7681 47.2495C73.3651 50.1492 75.5713 52.4605 78.3869 54.1835C81.2025 55.8645 84.4384 56.705 88.0945 56.705Z" fill="white"/>
<path d="M311.394 76.5331C311.279 76.7222 311.158 76.864 311.032 76.9586C310.906 77.0426 310.748 77.0847 310.559 77.0847C310.36 77.0847 310.134 77.0006 309.882 76.8325C309.64 76.6644 309.335 76.4806 308.968 76.281C308.61 76.0708 308.185 75.8817 307.691 75.7136C307.197 75.535 306.609 75.4457 305.926 75.4457C305.296 75.4457 304.739 75.5245 304.256 75.6821C303.783 75.8397 303.384 76.0603 303.058 76.344C302.732 76.6277 302.485 76.9639 302.317 77.3526C302.16 77.7308 302.081 78.1458 302.081 78.5975C302.081 79.1754 302.233 79.6586 302.538 80.0474C302.843 80.4256 303.242 80.7513 303.736 81.0244C304.24 81.2976 304.812 81.5392 305.453 81.7493C306.094 81.949 306.746 82.1643 307.407 82.3955C308.08 82.6266 308.736 82.8892 309.377 83.1834C310.018 83.4776 310.585 83.8506 311.079 84.3023C311.584 84.7541 311.988 85.3056 312.293 85.957C312.597 86.6084 312.75 87.4016 312.75 88.3366C312.75 89.3452 312.576 90.2907 312.23 91.1733C311.883 92.0558 311.379 92.8279 310.717 93.4898C310.065 94.1412 309.256 94.656 308.29 95.0342C307.334 95.4124 306.241 95.6015 305.012 95.6015C304.287 95.6015 303.578 95.528 302.885 95.3809C302.202 95.2443 301.545 95.05 300.915 94.7978C300.295 94.5352 299.712 94.22 299.165 93.8523C298.619 93.4846 298.131 93.0748 297.7 92.6231L298.771 90.8581C298.866 90.711 298.987 90.5954 299.134 90.5114C299.281 90.4273 299.444 90.3853 299.622 90.3853C299.864 90.3853 300.132 90.5009 300.426 90.732C300.72 90.9526 301.072 91.1995 301.482 91.4727C301.902 91.7353 302.407 91.9822 302.995 92.2133C303.583 92.434 304.287 92.5443 305.107 92.5443C306.441 92.5443 307.47 92.2186 308.195 91.5672C308.931 90.9159 309.298 90.0176 309.298 88.8724C309.298 88.2316 309.146 87.7115 308.841 87.3123C308.537 86.9026 308.132 86.5611 307.628 86.2879C307.134 86.0148 306.567 85.7837 305.926 85.5946C305.285 85.4054 304.634 85.2058 303.972 84.9957C303.31 84.7751 302.659 84.5229 302.018 84.2393C301.377 83.9451 300.804 83.5669 300.3 83.1046C299.806 82.6319 299.407 82.054 299.102 81.3711C298.798 80.6777 298.645 79.8162 298.645 78.7866C298.645 77.9672 298.803 77.174 299.118 76.407C299.444 75.6401 299.911 74.9625 300.521 74.3741C301.141 73.7753 301.902 73.2972 302.806 72.94C303.709 72.5828 304.739 72.4042 305.895 72.4042C307.197 72.4042 308.39 72.6091 309.472 73.0188C310.564 73.4286 311.505 74.0117 312.293 74.7681L311.394 76.5331ZM330.901 92.3709L330.885 95.3494H316.734V72.6564H330.885V75.6348H320.437V82.4743H328.789V85.3582H320.437V92.3709H330.901ZM341.481 83.5301C342.321 83.5301 343.057 83.4303 343.687 83.2307C344.317 83.0206 344.843 82.7317 345.263 82.3639C345.683 81.9962 345.998 81.5602 346.208 81.0559C346.418 80.5412 346.524 79.9738 346.524 79.354C346.524 78.1143 346.114 77.1687 345.294 76.5173C344.475 75.866 343.235 75.5403 341.575 75.5403H338.581V83.5301H341.481ZM352.165 95.3494H348.872C348.22 95.3494 347.748 95.0973 347.453 94.593L342.158 86.9498C341.98 86.6872 341.785 86.4981 341.575 86.3825C341.365 86.2669 341.05 86.2092 340.63 86.2092H338.581V95.3494H334.893V72.6564H341.575C343.067 72.6564 344.349 72.8087 345.42 73.1134C346.503 73.4181 347.39 73.8541 348.084 74.4214C348.777 74.9782 349.287 75.6506 349.612 76.4385C349.949 77.2265 350.117 78.1038 350.117 79.0703C350.117 79.8583 349.996 80.5937 349.754 81.2766C349.523 81.9595 349.182 82.5793 348.73 83.1361C348.289 83.693 347.742 84.1762 347.091 84.586C346.44 84.9957 345.699 85.3161 344.869 85.5473C345.321 85.8204 345.709 86.2039 346.035 86.6977L352.165 95.3494ZM373.243 72.6564L364.04 95.3494H360.715L351.512 72.6564H354.458C354.784 72.6564 355.047 72.7404 355.246 72.9085C355.446 73.0661 355.598 73.2657 355.703 73.5074L361.55 88.3051C361.865 89.1351 362.154 90.0911 362.417 91.1733C362.532 90.6374 362.653 90.1279 362.779 89.6446C362.916 89.1613 363.063 88.7148 363.221 88.3051L369.051 73.5074C369.135 73.2972 369.282 73.1029 369.493 72.9243C369.703 72.7457 369.965 72.6564 370.281 72.6564H373.243ZM379.595 95.3494H375.892V72.6564H379.595V95.3494ZM400.73 90.2907C400.93 90.2907 401.103 90.3695 401.251 90.5271L402.716 92.1188C401.792 93.2324 400.657 94.0939 399.312 94.7033C397.967 95.3021 396.36 95.6015 394.49 95.6015C392.83 95.6015 391.328 95.3179 389.983 94.7506C388.649 94.1727 387.509 93.3743 386.563 92.3552C385.618 91.3256 384.887 90.1016 384.373 88.6833C383.868 87.265 383.616 85.7049 383.616 84.0029C383.616 82.3009 383.884 80.7408 384.42 79.3225C384.966 77.8936 385.728 76.6697 386.705 75.6506C387.692 74.621 388.869 73.8225 390.235 73.2552C391.611 72.6879 393.124 72.4042 394.774 72.4042C396.412 72.4042 397.857 72.6721 399.107 73.2079C400.368 73.7332 401.461 74.4372 402.385 75.3197L401.172 77.0374C401.088 77.153 400.988 77.2528 400.872 77.3368C400.757 77.4209 400.599 77.4629 400.4 77.4629C400.189 77.4629 399.948 77.3683 399.675 77.1792C399.412 76.9796 399.071 76.7642 398.65 76.5331C398.241 76.2915 397.72 76.0761 397.09 75.887C396.47 75.6874 395.693 75.5876 394.758 75.5876C393.676 75.5876 392.683 75.7767 391.779 76.1549C390.876 76.5331 390.098 77.0847 389.447 77.8096C388.796 78.5345 388.286 79.417 387.918 80.4571C387.561 81.4972 387.383 82.6791 387.383 84.0029C387.383 85.3372 387.572 86.5296 387.95 87.5802C388.328 88.6203 388.848 89.5028 389.51 90.2277C390.172 90.9421 390.949 91.4884 391.842 91.8666C392.735 92.2449 393.697 92.434 394.726 92.434C395.357 92.434 395.919 92.4025 396.412 92.3394C396.917 92.2659 397.379 92.1556 397.799 92.0085C398.22 91.8509 398.613 91.6565 398.981 91.4254C399.359 91.1943 399.732 90.9106 400.1 90.5744C400.31 90.3853 400.52 90.2907 400.73 90.2907ZM420.069 92.3709L420.053 95.3494H405.901V72.6564H420.053V75.6348H409.605V82.4743H417.957V85.3582H409.605V92.3709H420.069Z" fill="black"/>
</svg>
